HIERARCHY
ROOT Hips
{
	OFFSET -0.001795 -0.223333 0.028219
	CHANNELS 6 Xposition Yposition Zposition Zrotation Yrotation Xrotation 
	JOINT LeftUpLeg
	{
		OFFSET 0.069520 -0.091406 -0.006815
		CHANNELS 3 Zrotation Yrotation Xrotation
		JOINT LeftLeg
		{
			OFFSET 0.034277 -0.375199 -0.004496
			CHANNELS 3 Zrotation Yrotation Xrotation
			JOINT LeftFoot
			{
				OFFSET -0.013596 -0.397961 -0.043693
				CHANNELS 3 Zrotation Yrotation Xrotation
				JOINT LeftToe
				{
					OFFSET 0.026358 -0.055791 0.119288
					CHANNELS 3 Zrotation Yrotation Xrotation
					End Site
					{
						OFFSET 0.000000 0.000000 0.000000
					}
				}
			}
		}
	}
	JOINT RightUpLeg
	{
		OFFSET -0.067670 -0.090522 -0.004320
		CHANNELS 3 Zrotation Yrotation Xrotation
		JOINT RightLeg
		{
			OFFSET -0.038290 -0.382569 -0.008850
			CHANNELS 3 Zrotation Yrotation Xrotation
			JOINT RightFoot
			{
				OFFSET 0.015774 -0.398415 -0.042312
				CHANNELS 3 Zrotation Yrotation Xrotation
				JOINT RightToe
				{
					OFFSET -0.025372 -0.048144 0.123348
					CHANNELS 3 Zrotation Yrotation Xrotation
					End Site
					{
						OFFSET 0.000000 0.000000 0.000000
					}
				}
			}
		}
	}
	JOINT Spine
	{
		OFFSET -0.002533 0.108963 -0.026696
		CHANNELS 3 Zrotation Yrotation Xrotation
		JOINT Spine1
		{
			OFFSET 0.005487 0.135180 0.001092
			CHANNELS 3 Zrotation Yrotation Xrotation
			JOINT Spine2
			{
				OFFSET 0.001457 0.052922 0.025425
				CHANNELS 3 Zrotation Yrotation Xrotation
				JOINT Neck
				{
					OFFSET -0.002778 0.213870 -0.042857
					CHANNELS 3 Zrotation Yrotation Xrotation
					JOINT Head
					{
						OFFSET 0.005152 0.064970 0.051349
						CHANNELS 3 Zrotation Yrotation Xrotation
						End Site
						{
							OFFSET 0.000000 0.000000 0.000000
						}
					}
				}
				JOINT LeftShoulder
				{
					OFFSET 0.078845 0.121749 -0.034090
					CHANNELS 3 Zrotation Yrotation Xrotation
					JOINT LeftArm
					{
						OFFSET 0.090977 0.030469 -0.008868
						CHANNELS 3 Zrotation Yrotation Xrotation
						JOINT LeftForeArm
						{
							OFFSET 0.259612 -0.012772 -0.027456
							CHANNELS 3 Zrotation Yrotation Xrotation
							JOINT LeftHand
							{
								OFFSET 0.249234 0.008986 -0.001171
								CHANNELS 3 Zrotation Yrotation Xrotation
								End Site
								{
									OFFSET 0.000000 0.000000 0.000000
								}
							}
						}
					}
				}
				JOINT RightShoulder
				{
					OFFSET -0.081759 0.118833 -0.038615
					CHANNELS 3 Zrotation Yrotation Xrotation
					JOINT RightArm
					{
						OFFSET -0.096012 0.032551 -0.009143
						CHANNELS 3 Zrotation Yrotation Xrotation
						JOINT RightForeArm
						{
							OFFSET -0.253742 -0.013329 -0.021401
							CHANNELS 3 Zrotation Yrotation Xrotation
							JOINT RightHand
							{
								OFFSET -0.255298 0.007772 -0.005559
								CHANNELS 3 Zrotation Yrotation Xrotation
								End Site
								{
									OFFSET 0.000000 0.000000 0.000000
								}
							}
						}
					}
				}
			}
		}
	}
}
MOTION
Frames: 17
Frame Time: 0.050000
0.000000 0.879915 0.000000 -0.041451 17.358380 -3.163174 -5.321460 -1.216953 -9.371629 -6.812467 -0.865399 32.707238 7.884694 8.374240 -16.590282 0.000000 0.000000 0.000000 -6.545918 -0.564881 -31.492705 4.967454 -8.659348 65.430211 -4.398762 -8.575311 -9.773333 0.000000 0.000000 0.000000 0.835862 -0.049636 1.634280 21.592133 -17.147431 12.517755 -17.366913 3.106605 -1.979909 4.575468 2.337023 -35.681528 0.000000 0.000000 0.000000 -5.958539 17.803071 -7.729171 -74.068898 2.477532 -12.644108 -69.230575 -75.613256 52.660411 0.000000 0.000000 0.000000 0.575957 -11.214438 -4.235256 60.762776 10.004393 1.228077 -115.173150 69.036507 -79.217332 0.000000 0.000000 0.000000 
-0.000328 0.881946 -0.001282 -0.908232 16.411797 -4.228396 -4.391876 -1.138337 -9.200915 -7.803724 -0.337843 32.010865 8.848510 12.940567 -13.299638 0.000000 0.000000 0.000000 -5.336826 -0.335579 -36.074947 1.380539 -6.702845 77.766547 -3.095243 -7.097855 -1.478781 0.000000 0.000000 0.000000 -0.442903 -0.012865 0.791030 21.760369 -18.738887 15.787143 -15.789448 3.117736 -1.979424 3.386551 2.611697 -35.620645 0.000000 0.000000 0.000000 -2.798507 19.598832 -6.943883 -76.769831 4.359622 -15.032918 -71.734600 -66.428943 47.854400 0.000000 0.000000 0.000000 1.645669 -12.153848 -4.634622 63.146262 10.819320 1.759977 -123.841475 68.773532 -89.122457 0.000000 0.000000 0.000000 
-0.003775 0.877736 -0.002437 -0.514719 14.483468 -2.849096 -2.954227 -1.270511 -10.815832 -9.887097 0.695179 31.312317 8.382902 12.298177 -13.443343 0.000000 0.000000 0.000000 -5.787542 -0.440764 -40.351381 2.713038 -7.256835 83.305257 -4.484872 -8.920526 -7.282359 0.000000 0.000000 0.000000 -1.357670 -0.015208 0.721974 18.820874 -18.347295 21.303010 -15.142641 3.297038 -7.352810 3.498747 2.732813 -39.068889 0.000000 0.000000 0.000000 0.770927 22.112694 -5.910411 -79.584195 7.656200 -18.386402 -107.238725 -63.204720 76.507133 0.000000 0.000000 0.000000 -0.667001 -11.482781 -4.149712 68.842166 8.482853 1.940024 -145.911673 64.820592 -114.522321 0.000000 0.000000 0.000000 
-0.004931 0.883688 -0.002341 -0.784271 14.267427 -2.332865 -2.604640 -1.251821 -10.900827 -9.825366 0.803734 28.683423 8.698931 14.453185 -9.727387 0.000000 0.000000 0.000000 -5.610622 -0.374690 -41.257101 3.200250 -7.527053 82.955951 -4.961253 -8.857635 -11.746041 0.000000 0.000000 0.000000 -2.540702 -0.008254 -0.383243 20.379620 -20.119522 22.360804 -16.129317 4.471296 -7.853369 3.764095 3.048808 -43.489880 0.000000 0.000000 0.000000 0.776674 21.353051 -5.604478 -79.717095 7.647109 -18.766412 -116.346192 -58.940723 80.689567 0.000000 0.000000 0.000000 0.538150 -11.300309 -4.217413 69.129812 8.338877 2.130798 -160.223976 63.956449 -133.491709 0.000000 0.000000 0.000000 
-0.007542 0.893540 -0.001008 -1.409859 13.990424 -2.256803 -3.342467 -1.194877 -10.142726 -6.676978 -0.006362 25.726547 8.741012 15.735362 -5.429281 0.000000 0.000000 0.000000 -4.756271 0.110580 -39.667145 4.652542 -8.136558 76.404433 -4.226821 -10.394234 0.837705 0.000000 0.000000 0.000000 -4.250965 -0.037703 -0.814548 20.552064 -20.852854 23.711335 -14.746524 4.113966 -8.473359 1.767557 3.496629 -44.263521 0.000000 0.000000 0.000000 2.929626 21.361397 -4.661176 -83.351711 8.047709 -20.551414 -123.906342 -52.708441 82.481730 0.000000 0.000000 0.000000 -0.801613 -10.679592 -3.851883 73.145772 4.881819 0.274827 176.407181 56.836458 -171.794871 0.000000 0.000000 0.000000 
-0.008294 0.896690 0.000776 -1.508765 13.721857 -0.891437 -3.390865 -1.475067 -12.111378 -6.791468 0.007274 26.711915 9.262544 17.404595 -3.638470 0.000000 0.000000 0.000000 -5.249516 0.103708 -37.393093 6.940960 -9.380937 70.827848 -2.808199 -9.549558 11.242384 0.000000 0.000000 0.000000 -4.200588 -0.030923 -1.823914 18.486499 -20.334557 26.905347 -13.754073 3.169909 -12.258025 3.615704 3.084726 -46.341455 0.000000 0.000000 0.000000 5.434576 22.332837 -3.684099 -83.559166 10.581776 -22.223418 -132.037965 -45.423714 83.461534 0.000000 0.000000 0.000000 -1.199519 -11.037152 -3.844896 73.125546 1.466122 -1.777841 165.448751 51.995698 162.462162 0.000000 0.000000 0.000000 
-0.011443 0.901054 0.003945 -1.891894 14.444850 -1.057056 -2.669895 -1.301011 -11.314148 -6.850354 0.061887 24.576662 9.729700 18.756625 -0.810316 0.000000 0.000000 0.000000 -2.272042 1.148511 -29.893621 6.190899 -7.744505 60.788988 -3.220345 -10.573207 14.985002 0.000000 0.000000 0.000000 -5.234107 -0.089288 -2.838658 18.784681 -20.825056 26.682591 -14.733401 3.052568 -12.351707 1.534360 3.412436 -42.746266 0.000000 0.000000 0.000000 6.738452 20.114150 -2.562178 -83.641485 9.217642 -21.422595 -130.141492 -46.143911 81.166075 0.000000 0.000000 0.000000 -2.214261 -11.049982 -3.763576 74.870369 -2.644086 -4.356515 157.584561 49.728793 144.802890 0.000000 0.000000 0.000000 
-0.013691 0.895470 0.004551 -1.373680 10.824179 -1.274683 -2.951627 -1.411200 -11.937512 -7.427344 0.518246 25.940704 11.384169 22.219838 0.407616 0.000000 0.000000 0.000000 -0.902173 1.770653 -27.010684 4.337739 -4.533453 57.957091 -1.303573 -6.694282 11.965973 0.000000 0.000000 0.000000 -5.742868 -0.096322 -3.194308 15.616491 -17.834044 29.302351 -13.947072 3.019855 -12.267330 1.646798 3.358662 -43.781012 0.000000 0.000000 0.000000 7.909048 21.894674 -2.564345 -83.506321 10.252401 -21.932680 -132.981347 -41.936438 79.446982 0.000000 0.000000 0.000000 -3.116558 -9.940458 -3.251470 76.518773 -2.015697 -4.248250 155.567736 50.041020 140.083204 0.000000 0.000000 0.000000 
-0.019684 0.882403 0.003968 -1.001747 11.090787 -0.639292 -1.676430 -1.803827 -15.656582 -10.925459 1.559435 30.615371 13.811593 26.711271 0.468259 0.000000 0.000000 0.000000 1.175870 1.844529 -20.306831 5.166699 -3.859937 46.045682 -6.554857 -16.249874 0.460526 0.000000 0.000000 0.000000 -6.513110 -0.098908 -2.557151 14.257084 -15.546001 26.581099 -13.414670 4.838112 -9.470888 1.067640 3.564640 -41.566100 0.000000 0.000000 0.000000 2.385352 20.702987 -4.669560 -78.916054 7.690071 -18.178674 -126.748782 -49.159479 80.170700 0.000000 0.000000 0.000000 -0.630028 -9.838557 -3.562115 73.492266 -0.499150 -3.220079 157.751547 55.005368 151.717831 0.000000 0.000000 0.000000 
-0.023260 0.878942 0.002258 -1.378785 8.826072 -1.099257 -0.621885 -2.006454 -18.429283 -13.242739 2.855175 35.198125 17.606795 32.373957 6.328286 0.000000 0.000000 0.000000 2.906524 2.052274 -18.427027 3.235869 -2.006311 44.266854 -5.558120 -13.522020 -5.076649 0.000000 0.000000 0.000000 -6.868017 -0.109889 -2.917272 12.510458 -14.010107 28.484942 -13.101612 6.316440 -7.932758 3.544080 2.991643 -41.515931 0.000000 0.000000 0.000000 1.605251 20.968426 -5.126047 -79.522192 5.239740 -16.850423 -122.802016 -53.094190 80.219805 0.000000 0.000000 0.000000 -0.527003 -8.111779 -2.980346 73.474139 3.918431 -0.367278 164.423902 60.382979 168.040690 0.000000 0.000000 0.000000 
-0.027176 0.878293 -0.001102 -1.340746 9.806970 0.156558 0.936586 -2.617042 -24.743207 -16.029223 4.185190 42.095344 15.285001 28.791017 9.960431 0.000000 0.000000 0.000000 3.882572 2.111676 -17.888221 3.121934 -1.819980 39.599594 -7.463952 -19.107966 -6.555797 0.000000 0.000000 0.000000 -6.933672 -0.059356 -1.780158 12.559366 -13.171258 25.278167 -12.392643 6.394545 -5.046049 2.398116 3.330256 -41.450490 0.000000 0.000000 0.000000 0.970328 19.569062 -5.166509 -80.110504 4.531490 -16.738256 -121.260401 -57.318032 84.144080 0.000000 0.000000 0.000000 -0.853892 -7.642504 -2.820683 70.943064 6.195557 0.601020 167.108453 63.306078 175.120505 0.000000 0.000000 0.000000 
-0.027132 0.882972 -0.001673 -1.947373 7.877667 0.504293 2.885493 -2.502934 -28.035482 -18.592863 6.323922 46.150363 13.034664 25.495785 9.728425 0.000000 0.000000 0.000000 4.563597 2.193026 -17.345409 2.855070 -1.175385 37.508755 -6.903985 -17.359914 -6.353826 0.000000 0.000000 0.000000 -6.465426 -0.044712 -2.583449 10.593709 -11.251851 26.130080 -10.440076 6.573621 -3.387107 3.088797 3.105578 -43.148943 0.000000 0.000000 0.000000 2.359681 17.763545 -4.237044 -82.803177 4.701583 -17.912652 -117.435571 -60.049399 84.154682 0.000000 0.000000 0.000000 -1.574250 -6.460892 -2.355042 70.869450 8.642890 1.843655 171.442368 63.715999 -178.152797 0.000000 0.000000 0.000000 
-0.022683 0.890192 0.001842 -1.756418 7.029124 0.897167 4.106196 -2.312392 -29.448519 -18.589797 6.803219 47.988864 10.944321 22.315074 3.127114 0.000000 0.000000 0.000000 4.043857 1.912769 -15.398879 2.599958 -0.718922 32.881808 -6.713418 -16.809688 -5.137705 0.000000 0.000000 0.000000 -6.367249 0.010121 -0.875909 11.614648 -11.391090 24.402342 -11.381477 6.314402 -4.314770 1.678775 3.321459 -39.273490 0.000000 0.000000 0.000000 3.302895 17.665598 -3.800342 -84.790093 7.778597 -21.207077 -121.552784 -60.790394 90.275841 0.000000 0.000000 0.000000 -0.895816 -5.535712 -2.030579 70.525568 6.513973 0.444142 168.183325 62.103722 176.012861 0.000000 0.000000 0.000000 
-0.019200 0.893943 0.006354 -1.664157 6.176721 -0.277233 2.518115 -2.361296 -27.090604 -14.907804 5.070528 49.397120 10.660520 21.650019 -0.044490 0.000000 0.000000 0.000000 2.639980 1.553486 -13.436353 4.274619 -1.314597 32.690980 -5.979082 -14.690463 -5.147698 0.000000 0.000000 0.000000 -6.677404 0.053873 2.243095 12.808908 -11.815144 22.914462 -11.920639 6.240674 -6.981718 1.101036 3.167636 -33.737113 0.000000 0.000000 0.000000 2.549276 16.719591 -3.703166 -85.143302 10.428558 -23.174661 -119.475595 -61.404950 87.837398 0.000000 0.000000 0.000000 -1.122592 -3.855401 -1.408408 72.708117 3.785959 -0.889741 169.700405 62.578914 177.526401 0.000000 0.000000 0.000000 
-0.010181 0.892135 0.018431 -2.706805 5.530529 0.049896 1.833819 -1.701721 -19.771414 -8.613860 1.553904 38.006028 9.058025 17.564653 -7.649950 0.000000 0.000000 0.000000 3.385608 1.602022 -13.131345 3.353458 -0.825460 32.473879 -5.319349 -12.866210 -4.635521 0.000000 0.000000 0.000000 -5.156182 0.029835 1.209976 14.259655 -12.938360 23.280664 -13.802368 5.712139 -9.097854 2.453883 2.573408 -32.142968 0.000000 0.000000 0.000000 3.617993 17.227712 -3.291826 -84.786214 10.455996 -23.049357 -116.643122 -64.184083 87.417271 0.000000 0.000000 0.000000 -0.996584 -5.454585 -1.982121 71.994075 1.080608 -2.374389 167.751176 61.242799 173.493186 0.000000 0.000000 0.000000 
-0.004623 0.885683 0.024679 -1.145123 7.033713 1.135750 -0.939035 -2.019691 -18.600126 -7.166134 0.708822 34.802425 8.747077 16.142230 -10.193642 0.000000 0.000000 0.000000 -0.212842 1.458275 -16.198731 6.012304 -2.517133 37.250806 -5.608783 -13.701824 -4.289056 0.000000 0.000000 0.000000 -6.582097 0.039684 0.311399 15.963215 -13.967545 21.316673 -14.722884 3.970220 -7.278512 3.136715 2.555519 -36.196271 0.000000 0.000000 0.000000 3.023297 17.681968 -3.826921 -84.069832 9.200995 -21.367787 -119.983551 -66.635983 94.797620 0.000000 0.000000 0.000000 -1.850626 -7.460479 -2.624899 73.481245 1.518899 -2.384189 169.947800 61.974674 176.512874 0.000000 0.000000 0.000000 
0.004912 0.889426 0.032727 -1.628093 5.246526 0.637138 -0.311273 -1.370228 -13.970276 -6.797591 0.873374 29.788580 6.847527 10.526848 -13.104617 0.000000 0.000000 0.000000 -2.242298 1.586458 -21.793121 9.109790 -4.555034 46.462755 -5.249767 -13.902638 7.244693 0.000000 0.000000 0.000000 -6.132592 -0.004013 -2.163111 15.492613 -15.617859 28.780742 -14.690937 2.983993 -12.869557 4.020211 2.249154 -36.454776 0.000000 0.000000 0.000000 4.319044 19.004775 -3.440207 -85.028124 6.187211 -18.712096 -122.899838 -75.612591 106.720087 0.000000 0.000000 0.000000 -3.169565 -8.501307 -2.749841 75.606392 2.349590 -1.337134 -175.993522 67.625370 -164.684645 0.000000 0.000000 0.000000 
